<svg width="16" height="16" viewBox="0 0 16 16" fill="none" xmlns="http://www.w3.org/2000/svg">
<rect width="16" height="16" rx="8" fill="#D9D9D9"/>
<path d="M9.875 8.125C9.875 8.62228 9.67746 9.09919 9.32583 9.45083C8.97419 9.80246 8.49728 10 8 10C7.50272 10 7.02581 9.80246 6.67417 9.45083C6.32254 9.09919 6.125 8.62228 6.125 8.125C6.125 7.62772 6.32254 7.15081 6.67417 6.79917C7.02581 6.44754 7.50272 6.25 8 6.25C8.49728 6.25 8.97419 6.44754 9.32583 6.79917C9.67746 7.15081 9.875 7.62772 9.875 8.125V8.125Z" fill="black"/>
<path d="M2 8.125C2 8.125 4.25 4 8 4C11.75 4 14 8.125 14 8.125C14 8.125 11.75 12.25 8 12.25C4.25 12.25 2 8.125 2 8.125ZM8 10.75C8.69619 10.75 9.36387 10.4734 9.85616 9.98116C10.3484 9.48887 10.625 8.82119 10.625 8.125C10.625 7.42881 10.3484 6.76113 9.85616 6.26884C9.36387 5.77656 8.69619 5.5 8 5.5C7.30381 5.5 6.63613 5.77656 6.14384 6.26884C5.65156 6.76113 5.375 7.42881 5.375 8.125C5.375 8.82119 5.65156 9.48887 6.14384 9.98116C6.63613 10.4734 7.30381 10.75 8 10.75V10.75Z" fill="black"/>
</svg>
